# xmcd
#
# Track frame offsets:
#	150
#	19512
#	27404
#	45671
#	66873
#	88150
#	92664
#	112977
#	131357
#	148968
#	153280
#	172942
#	194091
#
# Disc length: 2835 seconds
#
# Revision: 0
# Processed by: cddbd v1.5.1PL0 Copyright (c) Steve Scherf et al.
# Submitted via: MusicWizard 7.2.0
#
DISCID=ac0b110d
DTITLE=The Neville Brothers - Walkin' In The Shadow Of Life
DYEAR=2004
DGENRE=Soul
TTITLE0=Walkin' In The Shadow Of Life
TTITLE1=Poppa Funk
TTITLE2=Can't Stop The Funk
TTITLE3=Ball Of Confusion (That's What The World Is Today)
TTITLE4=Kingdom Come
TTITLE5=Middle Passage
TTITLE6=Junkie Child (Featuring B.G.)
TTITLE7=Streets Are Callin'
TTITLE8=Your Life (Fallen Soldiers)
TTITLE9=Scrape Scat
TTITLE10=Carry The Torch
TTITLE11=Brothers
TTITLE12=Rivers Of Babylon
EXTD=
EXTT0=
EXTT1=
EXTT2=
EXTT3=
EXTT4=
EXTT5=
EXTT6=
EXTT7=
EXTT8=
EXTT9=
EXTT10=
EXTT11=
EXTT12=
PLAYORDER=
